<svg width="21" height="10" viewBox="0 0 21 10" fill="none" xmlns="http://www.w3.org/2000/svg">
<path d="M0.492 0.599999H2.376L3.216 6.612H3.24L4.08 0.599999H5.964V9H4.716V2.64H4.692L3.732 9H2.628L1.668 2.64H1.644V9H0.492V0.599999ZM6.94903 0.599999H8.90503C9.58503 0.599999 10.081 0.76 10.393 1.08C10.705 1.392 10.861 1.876 10.861 2.532V3.048C10.861 3.92 10.573 4.472 9.99703 4.704V4.728C10.317 4.824 10.541 5.02 10.669 5.316C10.805 5.612 10.873 6.008 10.873 6.504V7.98C10.873 8.22 10.881 8.416 10.897 8.568C10.913 8.712 10.953 8.856 11.017 9H9.67303C9.62503 8.864 9.59303 8.736 9.57703 8.616C9.56103 8.496 9.55303 8.28 9.55303 7.968V6.432C9.55303 6.048 9.48903 5.78 9.36103 5.628C9.24103 5.476 9.02903 5.4 8.72503 5.4H8.26903V9H6.94903V0.599999ZM8.74903 4.2C9.01303 4.2 9.20903 4.132 9.33703 3.996C9.47303 3.86 9.54103 3.632 9.54103 3.312V2.664C9.54103 2.36 9.48503 2.14 9.37303 2.004C9.26903 1.868 9.10103 1.8 8.86903 1.8H8.26903V4.2H8.74903ZM11.7889 0.599999H13.8049C14.4609 0.599999 14.9529 0.776 15.2809 1.128C15.6089 1.48 15.7729 1.996 15.7729 2.676V6.924C15.7729 7.604 15.6089 8.12 15.2809 8.472C14.9529 8.824 14.4609 9 13.8049 9H11.7889V0.599999ZM13.7809 7.8C13.9969 7.8 14.1609 7.736 14.2729 7.608C14.3929 7.48 14.4529 7.272 14.4529 6.984V2.616C14.4529 2.328 14.3929 2.12 14.2729 1.992C14.1609 1.864 13.9969 1.8 13.7809 1.8H13.1089V7.8H13.7809ZM18.3799 9.12C17.7399 9.12 17.2559 8.94 16.9279 8.58C16.5999 8.212 16.4359 7.688 16.4359 7.008V6.528H17.6839V7.104C17.6839 7.648 17.9119 7.92 18.3679 7.92C18.5919 7.92 18.7599 7.856 18.8719 7.728C18.9919 7.592 19.0519 7.376 19.0519 7.08C19.0519 6.728 18.9719 6.42 18.8119 6.156C18.6519 5.884 18.3559 5.56 17.9239 5.184C17.3799 4.704 16.9999 4.272 16.7839 3.888C16.5679 3.496 16.4599 3.056 16.4599 2.568C16.4599 1.904 16.6279 1.392 16.9639 1.032C17.2999 0.664 17.7879 0.48 18.4279 0.48C19.0599 0.48 19.5359 0.664 19.8559 1.032C20.1839 1.392 20.3479 1.912 20.3479 2.592V2.94H19.0999V2.508C19.0999 2.22 19.0439 2.012 18.9319 1.884C18.8199 1.748 18.6559 1.68 18.4399 1.68C17.9999 1.68 17.7799 1.948 17.7799 2.484C17.7799 2.788 17.8599 3.072 18.0199 3.336C18.1879 3.6 18.4879 3.92 18.9199 4.296C19.4719 4.776 19.8519 5.212 20.0599 5.604C20.2679 5.996 20.3719 6.456 20.3719 6.984C20.3719 7.672 20.1999 8.2 19.8559 8.568C19.5199 8.936 19.0279 9.12 18.3799 9.12Z" fill="#13AA52"/>
</svg>
