<svg width="26" height="26" viewBox="0 0 26 26" fill="none" xmlns="http://www.w3.org/2000/svg">
<path d="M5.39826 7.79676C6.70736 7.79676 7.76859 6.73552 7.76859 5.42642C7.76859 4.11733 6.70736 3.05609 5.39826 3.05609C4.08916 3.05609 3.02792 4.11733 3.02792 5.42642C3.02792 6.73552 4.08916 7.79676 5.39826 7.79676Z" fill="#55E5A4"/>
<path d="M10.0068 9.59294V22.7435H14.0898V16.2403C14.0898 14.5243 14.4127 12.8624 16.5403 12.8624C18.6388 12.8624 18.6648 14.8244 18.6648 16.3486V22.7446H22.75V15.5329C22.75 11.9904 21.9873 9.26794 17.8468 9.26794C15.8589 9.26794 14.5264 10.3589 13.9815 11.3913H13.9263V9.59294H10.0068ZM3.35292 9.59294H7.4425V22.7435H3.35292V9.59294Z" fill="#55E5A4"/>
</svg>
