<svg width="25" height="25" viewBox="0 0 25 25" fill="none" xmlns="http://www.w3.org/2000/svg">
<g clip-path="url(#clip0_23_331)">
<path d="M0 12.5V25H12.5H25V12.5V0H12.5H0V12.5Z" fill="#007ACC"/>
<path d="M5.52849 12.5829L5.52055 13.6068L7.14754 13.6068H8.77452V18.2298V22.8528H9.92532H11.0761V18.2298L11.0761 13.6068H12.7031H14.3301V12.6028C14.3301 12.0472 14.3182 11.5829 14.3023 11.571C14.2904 11.5552 12.3102 11.5472 9.90944 11.5512L5.5404 11.5631L5.52849 12.5829Z" fill="white"/>
<path d="M20.1725 11.5339C20.8075 11.6927 21.2916 11.9744 21.736 12.4347C21.9662 12.6808 22.3075 13.1292 22.3352 13.2363C22.3432 13.2681 21.2559 13.9982 20.5972 14.4069C20.5733 14.4228 20.4781 14.3196 20.371 14.1609C20.0495 13.6927 19.7122 13.4903 19.1964 13.4546C18.4384 13.403 17.9503 13.7998 17.9543 14.4625C17.9543 14.657 17.9821 14.772 18.0614 14.9308C18.2281 15.276 18.5376 15.4823 19.5098 15.903C21.2995 16.6728 22.0654 17.1808 22.5416 17.903C23.0733 18.7085 23.1924 19.9943 22.8313 20.9506C22.4345 21.9903 21.4503 22.6966 20.0654 22.9308C19.6368 23.0062 18.621 22.9943 18.1606 22.9109C17.1567 22.7323 16.2043 22.2363 15.617 21.5855C15.3868 21.3316 14.9384 20.6689 14.9662 20.6212C14.9781 20.6054 15.0813 20.5419 15.1964 20.4744C15.3075 20.4109 15.7281 20.1689 16.1249 19.9387L16.8432 19.522L16.994 19.7443C17.2043 20.0657 17.6646 20.5062 17.9424 20.653C18.74 21.0736 19.8352 21.0141 20.3749 20.53C20.6051 20.3196 20.7003 20.1014 20.7003 19.78C20.7003 19.4903 20.6646 19.3633 20.5138 19.145C20.3194 18.8673 19.9225 18.6331 18.7956 18.145C17.5059 17.5895 16.9503 17.2443 16.4424 16.6966C16.1487 16.3792 15.871 15.8712 15.7559 15.4466C15.6606 15.0935 15.6368 14.2085 15.7122 13.8514C15.9781 12.6054 16.9186 11.7363 18.2757 11.4784C18.7162 11.395 19.74 11.4268 20.1725 11.5339Z" fill="white"/>
</g>
<defs>
<clipPath id="clip0_23_331">
<rect width="25" height="25" fill="white"/>
</clipPath>
</defs>
</svg>
