<svg width="26" height="25" viewBox="0 0 26 25" fill="none" xmlns="http://www.w3.org/2000/svg">
<g clip-path="url(#clip0_23_348)">
<path d="M13.4721 14.2945C14.7288 14.2945 15.7475 13.2757 15.7475 12.0191C15.7475 10.7624 14.7288 9.74365 13.4721 9.74365C12.2154 9.74365 11.1967 10.7624 11.1967 12.0191C11.1967 13.2757 12.2154 14.2945 13.4721 14.2945Z" fill="#00D8FF"/>
<path fill-rule="evenodd" clip-rule="evenodd" d="M13.6392 7.22278C17.5188 7.2492 21.7515 7.53223 24.657 10.1232C24.7424 10.1994 24.8247 10.2787 24.905 10.3605C25.5905 11.0592 25.9487 12.1872 25.3954 13.1156C24.2602 15.0216 21.7216 15.8529 19.2637 16.3646C15.5879 17.1298 11.7444 17.1359 8.07007 16.4622C5.95573 16.0739 3.79363 15.3935 2.29108 13.9703C1.70622 13.4164 1.20622 12.6877 1.28447 11.8768C1.4115 10.5648 2.67015 9.72279 3.7296 9.15266C6.6722 7.56932 10.2576 7.21515 13.6392 7.22278ZM13.3577 7.81881C9.68695 7.84371 5.71386 8.07796 2.8795 10.425C2.78041 10.5068 2.68488 10.5927 2.59291 10.6827C2.53346 10.7406 2.47604 10.801 2.42065 10.863C1.92319 11.422 1.75195 12.3199 2.22147 12.9911C2.69403 13.6664 3.41151 14.1537 4.15034 14.5511C6.91356 16.0368 10.1788 16.3006 13.3623 16.3117C16.5854 16.3234 19.909 16.0297 22.7561 14.5577C23.8903 13.9708 25.1667 13.109 25.1215 11.9992C25.0798 10.9809 24.0869 10.3519 23.3435 9.90267C23.1423 9.78122 22.9355 9.66893 22.7256 9.56323C19.8994 8.14707 16.5874 7.8117 13.3577 7.81881Z" fill="#00D8FF"/>
<path fill-rule="evenodd" clip-rule="evenodd" d="M18.6112 1.22003C20.0305 1.25611 20.7657 2.96242 20.8628 4.22259C20.8821 4.4731 20.8892 4.72462 20.8862 4.97615C20.8831 5.24851 20.8684 5.52087 20.8445 5.79221C20.5452 9.15198 19.0111 12.3517 17.2047 15.3065C15.438 18.1967 13.2835 21.0789 10.3526 22.4183C9.38356 22.8614 8.23112 23.1348 7.37339 22.6404C6.19757 21.963 6.06901 20.3787 6.09086 19.1769C6.09645 18.8817 6.11576 18.5865 6.14625 18.2923C6.59798 13.9427 8.80277 9.82221 11.5619 6.2724C13.1717 4.20125 15.0868 2.14687 17.4725 1.40296C17.848 1.28558 18.1463 1.21444 18.6112 1.22003ZM18.5432 1.81556C16.877 1.84199 15.381 3.07675 14.0563 4.35978C10.5736 7.73226 8.00703 12.2175 6.9745 16.9213C6.89473 17.2857 6.82765 17.6525 6.77836 18.0219C6.74025 18.308 6.71231 18.5956 6.69757 18.8842C6.68588 19.1139 6.68182 19.3441 6.68893 19.5743C6.69401 19.7542 6.7057 19.934 6.72552 20.1129C6.74025 20.2496 6.76007 20.3858 6.78497 20.5209C6.80377 20.621 6.82562 20.7206 6.85103 20.8197C6.87186 20.9 6.89524 20.9798 6.92166 21.0591C7.12948 21.6856 7.66506 22.2842 8.38406 22.304C10.0614 22.3497 11.6407 21.1266 13.006 19.7974C15.4029 17.4645 17.189 14.5331 18.5843 11.4518C19.7103 8.96397 20.7403 6.25969 20.1651 3.52137C20.1433 3.41771 20.1179 3.31506 20.0889 3.21344C20.065 3.13061 20.0381 3.0488 20.0086 2.96801C19.785 2.35876 19.2591 1.81404 18.5432 1.81556Z" fill="#00D8FF"/>
<path fill-rule="evenodd" clip-rule="evenodd" d="M8.4456 1.24223C10.2566 1.27729 11.8831 2.50647 13.3272 3.883C15.9624 6.3947 17.906 9.58984 19.3806 12.9527C20.5229 15.5579 21.5737 18.4822 20.6398 21.2312C20.3456 22.0975 19.6011 22.8902 18.6088 22.9105C16.7891 22.9471 15.1026 21.6239 13.6392 20.1996C9.96797 16.6254 7.24234 11.9069 6.30839 6.90283C6.24132 6.5451 6.18797 6.18433 6.15138 5.82203C6.1214 5.5263 6.1026 5.22904 6.09752 4.93178C6.09345 4.69194 6.09854 4.45211 6.1153 4.21328C6.12648 4.05373 6.14274 3.89519 6.16459 3.73716C6.18543 3.58879 6.21185 3.44092 6.24488 3.29458C6.26673 3.19753 6.29112 3.10149 6.31907 3.00596C6.59295 2.06947 7.30535 1.23512 8.4456 1.24223ZM8.377 1.83827C7.31653 1.86165 6.83126 3.11216 6.7337 3.98971C6.71388 4.16958 6.70169 4.35099 6.6961 4.53239C6.68899 4.7641 6.69203 4.99632 6.70372 5.22802C6.87039 8.58119 8.36938 11.8231 10.1783 14.7916C11.8816 17.5863 13.9385 20.3699 16.7678 21.8008C17.5849 22.2139 18.5778 22.5386 19.2836 22.1483C20.1687 21.6585 20.2775 20.4913 20.3247 19.6214C20.3374 19.3846 20.339 19.1468 20.3313 18.9095C20.3222 18.6117 20.2988 18.3145 20.2637 18.0187C19.9375 15.256 18.7139 12.6417 17.3084 10.1711C15.5595 7.09795 13.4167 4.03493 10.3841 2.43482C9.75607 2.10352 9.07619 1.83268 8.377 1.83827Z" fill="#00D8FF"/>
</g>
<defs>
<clipPath id="clip0_23_348">
<rect width="25" height="25" fill="white" transform="translate(0.666626)"/>
</clipPath>
</defs>
</svg>
