<svg width="25" height="25" viewBox="0 0 25 25" fill="none" xmlns="http://www.w3.org/2000/svg">
<path d="M12.6336 14.6094C12.2578 14.782 11.8461 15.007 11.0219 15.4594C10.7094 15.6351 10.3828 15.8109 10.0789 15.9765C10.0578 15.9554 10.0359 15.9289 10.0148 15.907C8.38435 14.1648 5.36873 12.9344 5.49685 10.5945C5.54451 9.74217 5.83748 7.50467 11.2883 4.78748C15.7742 2.57654 19.3437 3.18904 19.9601 4.54764C20.8461 6.48435 18.0469 10.0883 13.414 10.6109C12.9013 10.7149 12.3717 10.7024 11.8645 10.5742C11.3573 10.446 10.8853 10.2054 10.4836 9.87029C10.2383 9.60388 10.2015 9.58826 10.1109 9.64139C9.9617 9.71951 10.0578 9.96092 10.1109 10.0992C10.2876 10.4192 10.5267 10.7004 10.814 10.9264C11.1013 11.1524 11.431 11.3185 11.7836 11.4148C13.6067 11.8089 15.5075 11.6206 17.2179 10.8765C20.0258 9.78982 22.2179 6.76873 21.5758 4.23592C20.9312 1.66795 16.6687 0.821074 12.6359 2.25389C10.1103 3.10497 7.77695 4.44475 5.76873 6.19685C3.54685 8.27498 3.19529 10.0812 3.33904 10.8375C3.85623 13.5226 7.55779 15.2703 9.04217 16.5648C8.96404 16.6078 8.89841 16.6429 8.83982 16.6765C8.0992 17.0445 5.27576 18.5203 4.57185 20.0812C3.77263 21.85 4.69998 23.1179 5.31248 23.2883C6.23552 23.5094 7.20456 23.4367 8.08429 23.0804C8.96401 22.724 9.7105 22.1019 10.2195 21.3008C10.6518 20.6364 10.9172 19.8776 10.9932 19.0887C11.0692 18.2998 10.9536 17.5042 10.6562 16.7695C10.8317 16.6295 11.0188 16.5049 11.2156 16.3969C11.5937 16.1734 11.9539 15.9531 12.2734 15.7828C13.3675 15.2703 14.5614 15.0065 15.7695 15.0101C18.3054 15.3086 18.8062 16.8906 18.7101 17.557C18.6652 17.7934 18.5701 18.0175 18.4313 18.2141C18.2925 18.4107 18.1132 18.5753 17.9054 18.6969C17.7297 18.8086 17.6711 18.8461 17.6867 18.9258C17.7078 19.0429 17.7929 19.0375 17.9422 19.0164C18.3232 18.896 18.6588 18.6631 18.9051 18.3484C19.1513 18.0337 19.2966 17.6519 19.3219 17.2531C19.4 15.6906 17.9101 13.9765 15.2726 13.9922C14.4829 13.9935 13.701 14.1493 12.9711 14.4508C12.8539 14.4992 12.7401 14.5513 12.6297 14.607L12.6336 14.6094ZM8.86404 20.7336C8.02185 21.65 6.84998 21.9961 6.34373 21.7031C5.79685 21.3906 6.01326 20.0351 7.04685 19.0656C7.65901 18.514 8.32066 18.02 9.02342 17.5898C9.14607 17.5117 9.32732 17.4086 9.54529 17.2773C9.58279 17.2562 9.60388 17.2453 9.60388 17.2453L9.73201 17.1672C9.91635 17.7852 9.93312 18.4412 9.78061 19.0678C9.6281 19.6945 9.31178 20.2694 8.86404 20.7336Z" fill="#CD6799"/>
</svg>
