<svg width="26" height="25" viewBox="0 0 26 25" fill="none" xmlns="http://www.w3.org/2000/svg">
<g clip-path="url(#clip0_23_332)">
<path d="M0.666626 0H25.6666V25H0.666626V0Z" fill="#F7DF1E"/>
<path d="M7.24003 20.8919L9.1532 19.7341C9.52229 20.3885 9.85805 20.9422 10.6634 20.9422C11.4354 20.9422 11.9221 20.6402 11.9221 19.4656V11.4775H14.2715V19.4988C14.2715 21.9322 12.8451 23.0398 10.7641 23.0398C8.88471 23.0398 7.79376 22.0664 7.23999 20.8917" fill="black"/>
<path d="M15.5476 20.64L17.4605 19.5324C17.9641 20.3548 18.6186 20.9589 19.7765 20.9589C20.7499 20.9589 21.3707 20.4722 21.3707 19.8009C21.3707 18.9954 20.733 18.7101 19.659 18.2404L19.0718 17.9885C17.3767 17.267 16.2523 16.3608 16.2523 14.4477C16.2523 12.6856 17.5948 11.343 19.6926 11.343C21.1862 11.343 22.2602 11.8633 23.0321 13.2226L21.2028 14.3973C20.8001 13.6757 20.3639 13.3905 19.6926 13.3905C19.0046 13.3905 18.5682 13.8268 18.5682 14.3973C18.5682 15.1021 19.0046 15.3875 20.0114 15.8238L20.5987 16.0755C22.5957 16.9314 23.7201 17.804 23.7201 19.7673C23.7201 21.8819 22.0588 23.0398 19.8269 23.0398C17.6453 23.0398 16.2355 21.9994 15.5476 20.64Z" fill="black"/>
</g>
<defs>
<clipPath id="clip0_23_332">
<rect width="25" height="25" fill="white" transform="translate(0.666626)"/>
</clipPath>
</defs>
</svg>
