<svg width="26" height="25" viewBox="0 0 26 25" fill="none" xmlns="http://www.w3.org/2000/svg">
<g clip-path="url(#clip0_23_370)">
<path d="M12.8334 25C19.7369 25 25.3334 19.4036 25.3334 12.5C25.3334 5.59644 19.7369 0 12.8334 0C5.92981 0 0.333374 5.59644 0.333374 12.5C0.333374 19.4036 5.92981 25 12.8334 25Z" fill="#13AA52"/>
<path d="M16.1747 10.9727C15.3852 7.48804 13.5192 6.34229 13.3183 5.90454C13.0985 5.5957 12.8759 5.04639 12.8759 5.04639C12.8722 5.03711 12.8664 5.02075 12.8595 5.00488C12.8368 5.31372 12.8251 5.43286 12.5331 5.74438C12.081 6.0979 9.76113 8.04443 9.57241 12.0034C9.39639 15.6958 12.2396 17.896 12.6242 18.1765L12.6679 18.2075V18.2048C12.6703 18.2234 12.7899 19.0837 12.8739 19.9954H13.1752C13.2459 19.351 13.3518 18.7109 13.4926 18.0781L13.517 18.0623C13.689 17.9389 13.853 17.8048 14.008 17.6606L14.0255 17.6448C14.8429 16.8896 16.3124 15.1431 16.298 12.3584C16.295 11.8939 16.2537 11.4304 16.1747 10.9727ZM12.8419 16.0918C12.8419 16.0918 12.8419 10.9131 13.0128 10.9141C13.1461 10.9141 13.3188 17.594 13.3188 17.594C13.0814 17.5654 12.8419 16.4946 12.8419 16.0918Z" fill="white"/>
</g>
<defs>
<clipPath id="clip0_23_370">
<rect width="25" height="25" fill="white" transform="translate(0.333374)"/>
</clipPath>
</defs>
</svg>
