<svg width="25" height="25" viewBox="0 0 25 25" fill="none" xmlns="http://www.w3.org/2000/svg">
<path d="M13.416 1.79588C12.8615 1.48401 12.1385 1.48541 11.5835 1.79588C8.80383 3.3299 6.02408 4.86438 3.24387 6.3977C2.70288 6.68231 2.338 7.26327 2.34382 7.86625V17.135C2.33991 17.7498 2.72361 18.3363 3.27855 18.617C4.07712 19.0419 4.85297 19.5098 5.66597 19.9064C6.60508 20.3679 7.78002 20.4699 8.73062 19.9887C9.50226 19.5898 9.845 18.7027 9.84398 17.8875C9.85023 14.8286 9.845 11.7696 9.84641 8.71063C9.86476 8.57469 9.76265 8.42938 9.61437 8.43266C9.25914 8.42703 8.90344 8.42938 8.5482 8.43172C8.41398 8.41906 8.28297 8.53055 8.29312 8.66547C8.28836 11.7047 8.29406 14.7448 8.29023 17.7845C8.29797 18.205 8.0139 18.6091 7.60869 18.7511C6.67281 19.0791 4.00155 17.3447 4.00155 17.3447C3.90351 17.2993 3.84126 17.193 3.85087 17.0873C3.85087 14.0294 3.85135 10.9713 3.85087 7.91383C3.8374 7.79056 3.91337 7.67953 4.02658 7.6292C6.79713 6.10422 9.56625 4.57542 12.3368 3.0495C12.433 2.98527 12.5672 2.98547 12.6632 3.04997C15.4337 4.57542 18.2034 6.10282 20.9744 7.62788C21.088 7.67813 21.1607 7.79102 21.1491 7.91383C21.1487 10.9713 21.1501 14.0294 21.1482 17.087C21.1564 17.1952 21.1005 17.3 20.9995 17.3475C18.2548 18.8642 15.4788 20.332 12.759 21.8928C12.6403 21.9609 12.5059 22.038 12.3729 21.963C11.6577 21.5673 10.9511 21.1563 10.2382 20.7569C10.1607 20.7085 10.062 20.6877 9.98117 20.7419C9.66156 20.9103 9.36094 21.0467 8.99391 21.192C8.47844 21.3961 8.56078 21.4795 9.0257 21.7504C9.85937 22.2222 10.6945 22.6921 11.5281 23.1644C12.077 23.5069 12.8144 23.5312 13.3809 23.2148C16.161 21.6827 18.9403 20.1488 21.721 18.6166C22.2745 18.3344 22.6601 17.7502 22.6562 17.1349V7.86625C22.6616 7.2755 22.3106 6.7049 21.7859 6.41609C18.9966 4.87459 16.2059 3.33644 13.416 1.79588Z" fill="#8CC84B"/>
<path d="M17.6109 8.75479C16.5197 8.17104 15.2216 8.13995 14.009 8.21628C13.133 8.30284 12.2117 8.54456 11.5735 9.17253C10.9189 9.80378 10.7764 10.8232 11.0873 11.6472C11.3101 12.2296 11.871 12.6082 12.451 12.8085C13.1981 13.0723 13.9828 13.1539 14.7677 13.2354C15.4836 13.3098 16.1998 13.3842 16.8879 13.597C17.169 13.6901 17.4964 13.8326 17.5825 14.1385C17.662 14.5007 17.5748 14.9217 17.2807 15.1733C16.3467 15.9126 13.7484 15.7993 12.8255 15.2174C12.4524 14.9696 12.2916 14.5307 12.2262 14.1125C12.2189 13.9822 12.114 13.8627 11.9725 13.8726C11.6182 13.8684 11.2639 13.8693 10.9097 13.8721C10.7861 13.8617 10.6575 13.9497 10.6507 14.0759C10.5779 15.9913 12.3371 16.8263 13.9875 17.0101C14.9304 17.0999 15.8939 17.0948 16.8225 16.8924C17.5204 16.7335 18.2203 16.4409 18.7007 15.9033C19.2932 15.2499 19.4097 14.2772 19.144 13.4634C18.9409 12.8561 18.3604 12.4666 17.7669 12.2662C16.9599 11.9895 16.0035 11.8407 15.2725 11.7711C14.2101 11.6699 12.9476 11.7113 12.6469 11.0132C12.527 10.6476 12.629 10.1937 12.965 9.96885C13.8538 9.36596 15.6628 9.44604 16.5832 9.89643C17.0059 10.1081 17.2508 10.5428 17.3519 10.9816C17.3707 11.1105 17.4574 11.245 17.6066 11.2394C17.9585 11.2464 18.3104 11.2413 18.6622 11.2417C18.783 11.2502 18.9154 11.182 18.9389 11.0582C18.924 10.141 18.4557 9.20214 17.6109 8.75479Z" fill="#8CC84B"/>
</svg>
